<svg xmlns="http://www.w3.org/2000/svg" xmlns:xlink="http://www.w3.org/1999/xlink" viewBox="0 0 346.76 337.73"><defs><style>.cls-1{opacity:0.25;}.cls-2{fill-rule:evenodd;fill:url(#linear-gradient);}.cls-3,.cls-7{fill:#c9dbe4;}.cls-4{fill:#e7f3fc;}.cls-5{fill:#eceff5;}.cls-6,.cls-7{opacity:0.6;}.cls-15,.cls-8{opacity:0.42;}.cls-8{fill:url(#linear-gradient-2);}.cls-9{fill:url(#linear-gradient-3);}.cls-10{fill:url(#linear-gradient-4);}.cls-11{fill:#fff;}.cls-12{fill:url(#linear-gradient-5);}.cls-13,.cls-14,.cls-17{fill:none;stroke:#fff;stroke-miterlimit:10;}.cls-14{stroke-width:0.4px;}.cls-15{fill:url(#linear-gradient-6);}.cls-16{fill:url(#linear-gradient-7);}.cls-17{stroke-width:0.75px;}.cls-18{fill:url(#linear-gradient-8);}.cls-19{fill:url(#linear-gradient-9);}.cls-20{fill:url(#linear-gradient-10);}.cls-21{fill:url(#linear-gradient-11);}</style><linearGradient id="linear-gradient" x1="173.38" x2="173.38" y2="337.73" gradientUnits="userSpaceOnUse"><stop offset="0" stop-color="#65c1ee"/><stop offset="0.78" stop-color="#24aee4" stop-opacity="0"/></linearGradient><linearGradient id="linear-gradient-2" x1="42.08" y1="290.78" x2="42.08" y2="152.68" gradientUnits="userSpaceOnUse"><stop offset="0" stop-color="#65c1ee"/><stop offset="1" stop-color="#24aee4" stop-opacity="0"/></linearGradient><linearGradient id="linear-gradient-3" x1="7.52" y1="222.25" x2="77.59" y2="222.25" gradientUnits="userSpaceOnUse"><stop offset="0" stop-color="#2085ac"/><stop offset="1" stop-color="#156582"/></linearGradient><linearGradient id="linear-gradient-4" x1="25.65" y1="226.53" x2="25.65" y2="250.39" gradientUnits="userSpaceOnUse"><stop offset="0" stop-color="#65c1ee"/><stop offset="1" stop-color="#24aee4"/><stop offset="1" stop-color="#48687c"/></linearGradient><linearGradient id="linear-gradient-5" x1="48.98" y1="191.74" x2="48.98" y2="236.93" xlink:href="#linear-gradient-4"/><linearGradient id="linear-gradient-6" x1="302.08" y1="290.89" x2="302.08" y2="153.58" xlink:href="#linear-gradient-2"/><linearGradient id="linear-gradient-7" x1="267.03" y1="222.28" x2="337.13" y2="222.28" xlink:href="#linear-gradient-3"/><linearGradient id="linear-gradient-8" x1="289.54" y1="193.47" x2="289.54" y2="180.71" xlink:href="#linear-gradient-4"/><linearGradient id="linear-gradient-9" x1="285.28" y1="193.78" x2="285.28" y2="185.94" xlink:href="#linear-gradient-4"/><linearGradient id="linear-gradient-10" x1="285.28" y1="199.01" x2="285.28" y2="191.18" xlink:href="#linear-gradient-4"/><linearGradient id="linear-gradient-11" x1="103.04" y1="199.49" x2="241.57" y2="199.49" gradientUnits="userSpaceOnUse"><stop offset="0.31" stop-color="#1b7ba1"/><stop offset="0.54" stop-color="#1b86af"/><stop offset="0.96" stop-color="#1aa0d1"/><stop offset="1" stop-color="#229bcb"/></linearGradient></defs><title>Asset 56</title><g id="Layer_2" data-name="Layer 2"><g id="Kubernetes"><g id="kubernetes-2" data-name="kubernetes" class="cls-1"><g id="Desktop-HD"><g id="Section-1"><g id="kubernetes-3" data-name="kubernetes"><path id="Fill-3" class="cls-2" d="M258.55,232.84a99.71,99.71,0,0,1-31.32,31.31l-20.35-49a8.48,8.48,0,0,1,4.69-9.92,15.37,15.37,0,0,1,4.7-1l52.2,8.87a78.31,78.31,0,0,1-9.92,19.83Zm-63.68,45.4a106,106,0,0,1-22.44,2.61,117.11,117.11,0,0,1-32.89-5.22l25.58-46.44a8.1,8.1,0,0,1,10.44-2.09,26.18,26.18,0,0,1,4.17,3.65l25.06,45.4a83.59,83.59,0,0,0-9.92,2.09ZM76.39,213.53l51.67-8.87c4.18,0,8.35,2.61,8.87,6.78a6.12,6.12,0,0,1-.52,5.22l-19.83,48a102.61,102.61,0,0,1-40.19-51.14Zm8.87-88.19,38.62,34.44a8.38,8.38,0,0,1,1.05,12c-1.05,1.57-2.09,2.09-4.18,2.61L70.12,189a109.9,109.9,0,0,1,15.14-63.66Zm63.68-45.92,10.44-2.09-2.61,52.19c0,4.69-4.18,8.34-8.88,8.34a12.29,12.29,0,0,1-4.17-1L100.4,106a103.64,103.64,0,0,1,48.54-26.61ZM243.41,106l-42.8,30.27c-3.65,2.09-8.87,1.56-11.48-2.09a4.75,4.75,0,0,1-1.57-3.65l-3.13-52.71a98.23,98.23,0,0,1,59,28.18Zm28.19,50.1A100,100,0,0,1,273.69,189L224.1,174.92a8.54,8.54,0,0,1-6.26-10.44,8.28,8.28,0,0,1,2.09-3.65l39.14-35.49a105.89,105.89,0,0,1,12.53,30.79Zm-85.08,33.92-14.09,6.78-14.1-6.78-3.65-15.13,9.92-12.53h15.66l9.91,12.53Zm150.85,16.18h0c-.52,0-1.05,0-1.05-.53s-1-.52-2.08-.52a25.56,25.56,0,0,0-6.27-.52,6.66,6.66,0,0,1-3.13-.52h-.52A105.91,105.91,0,0,1,306.57,201a6.3,6.3,0,0,1-3.65-3.66h0l-4.18-1c2.09-15.13,1.05-30.79-2.08-45.92a141.51,141.51,0,0,0-18.27-42.79l3.13-3.13V104a7.3,7.3,0,0,1,1.56-4.7A93.22,93.22,0,0,1,297.7,88.81l3.13-1.56c2.09-1,3.65-2.09,5.74-3.13.52-.53,1.05-.53,1.57-1.05s0-.52,0-1c4.7-3.65,5.74-9.92,2.09-14.61a10,10,0,0,0-7.31-3.66,12.52,12.52,0,0,0-7.31,2.61l-.52.53c-.52.52-1,1-1.57,1a33.28,33.28,0,0,0-4.17,4.7c-.52,1-1.57,1.56-2.09,2.08A68.23,68.23,0,0,1,274.21,86.2a7.45,7.45,0,0,1-3.13,1,3.11,3.11,0,0,1-2.09-.53h-.52l-4.18,2.61c-4.17-4.17-8.87-8.35-13.05-12.52a133.79,133.79,0,0,0-67.85-27.14l-.52-4.17V46c-1.57-1-2.09-2.61-2.61-4.17a104.75,104.75,0,0,1,1-17.75v-.52c0-1,.52-2.08.52-3.13.52-2.09.52-4.17,1.05-6.26V11.06A10.33,10.33,0,0,0,174,.1c-3.13-.52-6.26,1-8.87,3.65A10.3,10.3,0,0,0,162,11.06v2.61a26.26,26.26,0,0,0,1,6.26,6.64,6.64,0,0,1,.52,3.13v.52c1,5.74,1,11.48,1,17.75-.52,1.56-1,3.13-2.61,4.17v1l-.52,4.18c-5.75.52-11.49,1.56-17.75,2.61a124.39,124.39,0,0,0-64.2,36.53l-3.13-2.09h-.53c-.52,0-1,.52-2.08.52a7.47,7.47,0,0,1-3.14-1,97.24,97.24,0,0,1-13-12c-.52-1-1.56-1.56-2.08-2.08-1.57-1.57-2.61-3.13-4.18-4.7-.52-.52-1-.52-1.57-1l-.52-.52a12.45,12.45,0,0,0-7.3-2.61c-3.14,0-5.75,1-7.31,3.65a11.22,11.22,0,0,0,2.09,14.61.51.51,0,0,1,.52.52s1,1.05,1.56,1.05a60.41,60.41,0,0,0,5.74,3.13l3.14,1.56c5.22,3.13,10.44,6.26,14.61,10.44,1.05,1,2.09,3.13,1.57,4.7v-.53L67,106.55c-.52,1-1,1.57-1.57,2.61-16.18,25.57-23,55.84-18.27,85.58l-4.17,1a.51.51,0,0,1-.52.52c-.52,1.57-2.09,2.61-3.66,3.65a96.4,96.4,0,0,1-17.74,3.13,6.56,6.56,0,0,0-3.14.53c-2.08,0-4.17.52-6.26.52-.52,0-1,.52-2.09.52-.52,0-.52,0-1,.52a10.18,10.18,0,0,0-8.35,12,9.69,9.69,0,0,0,10.44,7.31,4.74,4.74,0,0,0,2.61-.52c.52,0,.52,0,.52-.52s1.56,0,2.09,0c2.08-.53,4.17-1.57,5.74-2.09a7.45,7.45,0,0,1,3.13-1.05h.52a93.22,93.22,0,0,1,17.23-4.69H43a5.93,5.93,0,0,1,4.17,1.56.52.52,0,0,1,.53.53l4.69-.53a126,126,0,0,0,42.81,61.06,82.65,82.65,0,0,0,14.09,9.39l-2.61,3.65a.51.51,0,0,0,.52.53,6.1,6.1,0,0,1,.52,5.21,85.35,85.35,0,0,1-8.35,15.14v.52a9,9,0,0,1-2.09,2.61c-1,1-2.08,3.13-3.65,5.22-.52.52-.52,1-1,1.56a.51.51,0,0,1-.53.52,10.74,10.74,0,0,0,4.18,14.09,9.53,9.53,0,0,0,3.65,1.05,11.7,11.7,0,0,0,9.92-6.26.52.52,0,0,1,.52-.53c0-.52.52-1,1-1.56.52-2.09,1.56-3.65,2.08-5.74l1-3.13c1.56-5.74,4.17-11,6.78-16.18a8.1,8.1,0,0,1,4.18-3.13c.52,0,.52,0,.52-.52l2.09-4.18a122.87,122.87,0,0,0,45.41,8.35,104.53,104.53,0,0,0,28.19-3.65c5.74-1,11.48-3.13,16.7-4.7l2.09,3.66c.52,0,.52,0,.52.52a8.1,8.1,0,0,1,4.18,3.13c2.61,5.22,5.22,10.44,6.78,16.18v.52l1,3.13a18.75,18.75,0,0,0,2.08,5.74c.53.52.53,1,1.05,1.56a.52.52,0,0,0,.52.53,11.7,11.7,0,0,0,9.92,6.26,12.08,12.08,0,0,0,4.17-1.05,8.71,8.71,0,0,0,4.7-5.74,13.44,13.44,0,0,0-.52-7.82.51.51,0,0,0-.52-.53c0-.52-.53-1-1-1.56a18.81,18.81,0,0,0-3.65-5.22,9.35,9.35,0,0,0-2.09-2.61v-1A61.91,61.91,0,0,1,239.24,297a6.18,6.18,0,0,1,.52-5.21.51.51,0,0,1,.52-.53l-1.56-4.17c26.62-16.18,47-41.23,56.37-71l4.18.52a.51.51,0,0,0,.52-.52,5.94,5.94,0,0,1,4.17-1.57h.52a88,88,0,0,1,16.71,4.7h.52a7.43,7.43,0,0,0,3.13,1,27.78,27.78,0,0,0,5.74,2.61c.53,0,1.05.53,2.09.53.52,0,.52,0,1,.52a4.74,4.74,0,0,0,2.61.52,11.34,11.34,0,0,0,10.44-7.31,12.28,12.28,0,0,0-9.39-11Z"/></g></g></g></g><path class="cls-3" d="M263.46,304.71H86.08c-8.74-.21-8.74-11.44-8.74-11.44L97,249.93H247.61L271.8,293S271.8,304.71,263.46,304.71Z"/><path class="cls-4" d="M261.94,300.19l-174.75.25c-5.42,0-9.85-3.23-9.85-7.17L97,249.93H247.61L271.79,293C271.79,297,267.36,300.19,261.94,300.19Z"/><path class="cls-3" d="M105.63,148.9H239a8.62,8.62,0,0,1,8.62,8.62v92.55a0,0,0,0,1,0,0H97a0,0,0,0,1,0,0V157.52A8.62,8.62,0,0,1,105.63,148.9Z"/><rect class="cls-5" x="103.04" y="155.31" width="138.53" height="88.35"/><g class="cls-6"><polygon class="cls-3" points="112.69 258.14 102.22 258.14 103.86 253.87 114.09 253.87 112.69 258.14"/><polygon class="cls-3" points="125.82 258.14 115.35 258.14 116.69 253.87 126.92 253.87 125.82 258.14"/><polygon class="cls-3" points="138.96 258.14 128.49 258.14 129.52 253.87 139.75 253.87 138.96 258.14"/><polygon class="cls-3" points="152.09 258.14 141.62 258.14 142.35 253.87 152.58 253.87 152.09 258.14"/><polygon class="cls-3" points="165.23 258.14 154.76 258.14 155.19 253.87 165.41 253.87 165.23 258.14"/><polygon class="cls-3" points="178.36 258.14 167.89 258.14 168.01 253.87 178.24 253.87 178.36 258.14"/><polygon class="cls-3" points="191.5 258.14 181.03 258.14 180.84 253.87 191.07 253.87 191.5 258.14"/><polygon class="cls-3" points="204.63 258.14 194.16 258.14 193.68 253.87 203.9 253.87 204.63 258.14"/><polygon class="cls-3" points="217.76 258.14 207.3 258.14 206.5 253.87 216.73 253.87 217.76 258.14"/><polygon class="cls-3" points="230.9 258.14 220.43 258.14 219.34 253.87 229.56 253.87 230.9 258.14"/><polygon class="cls-3" points="244.03 258.14 233.57 258.14 232.17 253.87 242.39 253.87 244.03 258.14"/><polygon class="cls-3" points="110.58 264.54 99.75 264.54 101.51 259.98 112.08 259.98 110.58 264.54"/><polygon class="cls-3" points="124.17 264.54 113.34 264.54 114.78 259.98 125.35 259.98 124.17 264.54"/><polygon class="cls-3" points="137.76 264.54 126.93 264.54 128.04 259.98 138.61 259.98 137.76 264.54"/><polygon class="cls-3" points="151.36 264.54 140.53 264.54 141.31 259.98 151.88 259.98 151.36 264.54"/><polygon class="cls-3" points="164.95 264.54 154.12 264.54 154.57 259.98 165.15 259.98 164.95 264.54"/><polygon class="cls-3" points="178.54 264.54 167.71 264.54 167.84 259.98 178.41 259.98 178.54 264.54"/><polygon class="cls-3" points="192.13 264.54 181.3 264.54 181.11 259.98 191.68 259.98 192.13 264.54"/><polygon class="cls-3" points="205.73 264.54 194.9 264.54 194.37 259.98 204.95 259.98 205.73 264.54"/><polygon class="cls-3" points="219.32 264.54 208.49 264.54 207.64 259.98 218.21 259.98 219.32 264.54"/><polygon class="cls-3" points="246.5 264.54 222.08 264.54 220.91 259.98 244.75 259.98 246.5 264.54"/><polygon class="cls-3" points="122.37 271.52 97.05 271.52 98.94 266.63 123.64 266.63 122.37 271.52"/><polygon class="cls-3" points="136.47 271.52 125.24 271.52 126.43 266.63 137.38 266.63 136.47 271.52"/><polygon class="cls-3" points="150.56 271.52 139.33 271.52 140.17 266.63 151.12 266.63 150.56 271.52"/><polygon class="cls-3" points="164.65 271.52 153.42 271.52 153.91 266.63 164.86 266.63 164.65 271.52"/><polygon class="cls-3" points="178.74 271.52 167.51 271.52 167.65 266.63 178.6 266.63 178.74 271.52"/><polygon class="cls-3" points="192.83 271.52 181.6 271.52 181.39 266.63 192.34 266.63 192.83 271.52"/><polygon class="cls-3" points="206.93 271.52 195.7 271.52 195.13 266.63 206.09 266.63 206.93 271.52"/><polygon class="cls-3" points="235.11 271.52 223.88 271.52 222.62 266.63 233.57 266.63 235.11 271.52"/><polygon class="cls-3" points="105.81 279.05 94.15 279.05 96.18 273.77 107.54 273.77 105.81 279.05"/><polygon class="cls-3" points="120.44 279.05 108.78 279.05 110.44 273.77 121.8 273.77 120.44 279.05"/><polygon class="cls-3" points="135.07 279.05 123.41 279.05 124.69 273.77 136.05 273.77 135.07 279.05"/><polygon class="cls-3" points="193.59 279.05 138.04 279.05 138.94 273.77 193.06 273.77 193.59 279.05"/><polygon class="cls-3" points="208.22 279.05 196.56 279.05 195.95 273.77 207.31 273.77 208.22 279.05"/><polygon class="cls-3" points="222.84 279.05 211.19 279.05 210.21 273.77 221.56 273.77 222.84 279.05"/><polygon class="cls-3" points="237.47 279.05 225.82 279.05 224.46 273.77 235.82 273.77 237.47 279.05"/><polygon class="cls-3" points="252.1 279.05 240.45 279.05 238.71 273.77 250.07 273.77 252.1 279.05"/></g><polygon class="cls-7" points="195.51 296.01 149.1 296.01 150.51 282.89 194.1 282.89 195.51 296.01"/><path class="cls-8" d="M21.14,288.94l55.48-32a13.6,13.6,0,0,0,6.8-11.78V166.3A13.6,13.6,0,0,0,63,154.52l-55.49,32a13.62,13.62,0,0,0-6.8,11.78v78.84A13.6,13.6,0,0,0,21.14,288.94Z"/><path class="cls-9" d="M20.33,281.8l53-30.59a8.56,8.56,0,0,0,4.27-7.4V170.1a8.54,8.54,0,0,0-12.81-7.39l-53,30.59a8.56,8.56,0,0,0-4.27,7.4v73.71A8.54,8.54,0,0,0,20.33,281.8Z"/><polygon class="cls-10" points="28.61 226.53 22.7 229.94 22.7 250.39 28.61 246.98 28.61 226.53"/><polygon class="cls-11" points="39.98 206.26 34.06 209.68 34.06 243.83 39.98 240.41 39.98 206.26"/><polygon class="cls-12" points="51.94 191.74 46.02 195.16 46.02 236.93 51.94 233.51 51.94 191.74"/><polygon class="cls-11" points="63.4 211.21 57.49 214.63 57.49 230.31 63.4 226.89 63.4 211.21"/><polygon class="cls-13" points="70.5 230.6 16.09 262.01 16.09 204.37 70.5 172.96 70.5 230.6"/><line class="cls-14" x1="22.7" y1="263.49" x2="28.61" y2="260.07"/><line class="cls-14" x1="22.7" y1="265.34" x2="28.61" y2="261.93"/><line class="cls-14" x1="23.98" y1="266.46" x2="27.33" y2="264.52"/><line class="cls-14" x1="34.06" y1="256.92" x2="39.98" y2="253.51"/><line class="cls-14" x1="34.06" y1="258.78" x2="39.98" y2="255.36"/><line class="cls-14" x1="35.35" y1="259.9" x2="38.7" y2="257.96"/><line class="cls-14" x1="46.02" y1="250.02" x2="51.94" y2="246.6"/><line class="cls-14" x1="46.02" y1="251.88" x2="51.94" y2="248.46"/><line class="cls-14" x1="47.3" y1="252.99" x2="50.66" y2="251.06"/><line class="cls-14" x1="57.49" y1="243.4" x2="63.4" y2="239.98"/><line class="cls-14" x1="57.49" y1="245.26" x2="63.4" y2="241.84"/><line class="cls-14" x1="58.77" y1="246.37" x2="62.12" y2="244.44"/><path class="cls-15" d="M267.91,257.11l55.49,32A12.85,12.85,0,0,0,342.67,278V198.49a12.83,12.83,0,0,0-6.42-11.13l-55.5-32a12.84,12.84,0,0,0-19.27,11.13V246A12.85,12.85,0,0,0,267.91,257.11Z"/><path class="cls-16" d="M271.31,251.25l53,30.58a8.56,8.56,0,0,0,12.85-7.42V200.73a8.58,8.58,0,0,0-4.29-7.42l-53-30.58A8.57,8.57,0,0,0,267,170.15v73.68A8.57,8.57,0,0,0,271.31,251.25Z"/><polyline class="cls-17" points="326.64 269.16 276.24 240.06 276.24 178.22"/><polyline class="cls-17" points="280.75 237.21 288.77 224.71 293.37 235.24 303.2 217.96 308.43 234.39 311.22 226.65 314.34 233.41 321.54 220.91"/><polygon class="cls-11" points="323.16 222.6 323.15 218.11 319.27 220.36 323.16 222.6"/><polygon class="cls-18" points="298.6 193.47 280.48 183.01 280.48 180.71 298.6 191.17 298.6 193.47"/><polygon class="cls-19" points="290.08 193.78 280.48 188.24 280.48 185.94 290.08 191.48 290.08 193.78"/><polygon class="cls-20" points="290.08 199.01 280.48 193.48 280.48 191.18 290.08 196.71 290.08 199.01"/><rect class="cls-21" x="103.04" y="155.31" width="138.53" height="88.35"/><rect class="cls-11" x="112.08" y="170.86" width="53.73" height="5.12"/><rect class="cls-11" x="112.08" y="182.5" width="28.45" height="5.12"/><rect class="cls-11" x="112.08" y="194.14" width="28.45" height="5.12"/><rect class="cls-11" x="112.08" y="205.78" width="28.45" height="5.12"/><rect class="cls-11" x="112.08" y="219.7" width="36.94" height="1.07"/><rect class="cls-11" x="112.08" y="223.27" width="36.94" height="1.07"/><rect class="cls-11" x="112.08" y="226.83" width="36.94" height="1.07"/><circle class="cls-13" cx="183.39" cy="200.14" r="8.01"/><circle class="cls-13" cx="212.14" cy="185.06" r="12.98"/><circle class="cls-13" cx="208.64" cy="217.94" r="9.97"/><circle class="cls-11" cx="212.14" cy="185.06" r="4.39"/><circle class="cls-11" cx="183.39" cy="200.14" r="2.83"/><circle class="cls-11" cx="208.64" cy="217.94" r="2.83"/><line class="cls-13" x1="183.39" y1="200.14" x2="212.14" y2="185.06"/><line class="cls-13" x1="208.64" y1="217.94" x2="183.39" y2="200.14"/><line class="cls-13" x1="212.14" y1="185.06" x2="208.64" y2="217.94"/></g></g></svg>